<?xml version="1.0" encoding="utf-8" ?>
<svg xmlns="http://www.w3.org/2000/svg" xmlns:xlink="http://www.w3.org/1999/xlink" width="1024" height="1024">
	<path fill="#314346" d="M247.963 231.593C257.045 230.851 266.577 231.44 275.712 231.454L328.31 231.485L371.98 231.455C379.136 231.453 386.961 230.831 394.041 231.77C397.217 232.19 400.589 233.663 403.27 235.389C415.016 242.95 435.446 272.156 446.25 274.634C454.034 276.419 474.167 275.303 482.941 275.323L554.095 275.317C567.444 275.315 580.923 274.936 594.253 275.575C597.654 278.839 599.731 283.396 603.238 286.508C607.351 290.157 611.926 289.939 617.047 289.629L616.943 323.519C626.267 323.407 635.591 323.351 644.916 323.352C644.708 333.562 644.904 343.821 644.945 354.036L669.815 354.044C669.132 369.246 669.858 384.721 669.732 399.963C661.439 399.646 653.066 400.32 644.791 399.611L644.803 426.555C655.348 426.412 665.852 425.545 674.711 432.473C680.795 437.231 685.363 445.215 686.246 452.893C687.117 460.47 686.619 468.528 686.61 476.158L686.552 518.772L686.603 560.059C686.611 568.213 687.24 576.982 685.947 585.036C684.905 591.531 682.487 597.129 678.449 602.306C673.821 608.264 666.876 612.596 659.702 614.809C649.527 617.946 635.266 616.557 624.523 616.545L583.755 616.51L438.859 616.507L320.22 616.506C300.021 616.518 279.485 617.411 259.337 616.424C253.795 616.153 248.686 614.777 243.79 612.158C236.071 608.029 229.391 600.517 226.886 592.056C224.435 583.78 225.431 573.882 225.429 565.305L225.433 534.384L225.429 425.756L225.406 316.707C225.402 298.007 224.696 278.994 225.526 260.323C225.773 254.784 226.154 250.175 228.942 245.292C233.256 237.735 239.888 233.939 247.963 231.593ZM529.43 538.229L529.416 483.167C529.414 472.465 528.136 460.102 530.501 449.681C531.749 444.185 534.858 439.04 538.797 435.046C541.705 432.098 552.125 426.284 553.113 424.548C554.038 422.922 553.925 419.737 553.939 417.863C554.04 404.448 554.05 390.882 553.606 377.476C563.317 377.505 573.057 377.367 582.763 377.583C582.578 362.314 582.115 346.881 582.794 331.626C575.951 332.336 563.603 333.694 558.049 329.134C554.851 326.508 553.805 322.65 553.478 318.683C553.091 313.999 553.521 308.763 553.935 304.075L479.212 304.05C467.019 304.053 453.576 305.122 441.552 303.699C436.916 303.151 431.717 301.704 427.812 299.092C418.783 293.053 404.623 277.313 396.032 268.949C392.972 265.97 389.81 262.373 386.172 260.138C364.062 259.367 341.743 259.964 319.612 259.968C300.297 259.972 280.725 259.304 261.446 260.153C258.363 261.441 255.55 263.057 254.239 266.31C252.511 270.599 253.567 330.114 253.572 338.583L253.588 482.561L253.597 540.4C253.572 551.129 253.201 561.982 253.558 572.696C253.659 575.732 253.617 579.206 255.186 581.892C256.759 584.585 258.73 586.521 261.813 587.231C267.83 588.619 277.294 587.574 283.706 587.566L331.696 587.559L451.391 587.58C471.988 587.587 492.691 588.027 513.277 587.547C515.965 587.484 521.361 587.371 523.578 585.937C527.159 583.622 528.891 578.306 529.301 574.309C530.43 563.314 529.477 549.484 529.43 538.229ZM606.985 399.457C601.477 399.53 595.971 399.661 590.466 399.402L590.529 413.846C596.029 413.586 601.535 413.498 607.041 413.582C606.968 408.874 606.949 404.165 606.985 399.457ZM611.497 354.522L611.412 383.775C620.52 383.972 629.684 384.132 638.788 383.806C639.354 374.131 639.045 364.338 638.909 354.649C629.779 354.296 620.632 354.456 611.497 354.522Z"/>
	<path fill="#5EA77E" d="M491.505 347.574C497.697 347.463 503.892 347.5 510.082 347.686C509.558 356.143 508.042 364.63 506.803 373.012L521.553 373.052C521.49 378.585 521.097 384.173 519.975 389.599L504.115 389.494C503.078 395.441 502.701 401.627 501.357 407.493C507.889 407.515 514.5 407.337 521.02 407.663C520.798 412.767 520.107 417.829 519.876 422.918L519.491 424.144C514.966 426.045 506.347 424.645 501.337 424.661C500.222 424.744 499.922 424.712 498.974 425.37C497.401 433.916 496.968 442.644 495.496 451.228C489.711 450.896 483.807 451.075 478.008 451.045C478.694 442.059 480.196 433.032 481.345 424.091C475.302 423.958 469.248 424.084 463.203 424.134C462.378 433.124 461.432 442.24 459.783 451.116L441.921 451.093C442.959 442.059 444.068 433.035 445.248 424.019L432.205 424.141C432.499 418.587 433.058 413.047 433.559 407.508C438.324 407.436 443.104 407.532 447.871 407.549C448.884 401.677 449.417 395.66 450.231 389.751C445.096 389.484 439.942 389.589 434.801 389.611C435.204 384.067 435.764 378.536 436.481 373.024C441.932 373.01 447.387 372.923 452.829 373.278C453.476 366.476 454.315 359.552 455.528 352.828C455.657 351.045 455.839 349.324 456.143 347.562L474.145 347.539C473.331 356.003 472.297 364.706 470.79 373.075L488.308 373.021C488.996 364.535 490.272 356.001 491.505 347.574ZM465.561 407.635L483.835 407.523C484.662 401.476 485.385 395.39 486.419 389.376C481.733 390.176 472.894 390.176 468.193 389.089L465.561 407.635Z"/>
	<path fill="#449A6D" d="M455.528 352.828C457.708 356.665 455.948 365.773 454.765 370.005C454.392 371.34 453.684 372.232 452.829 373.278C453.476 366.476 454.315 359.552 455.528 352.828Z"/>
	<path fill="#449A6D" d="M501.337 424.661C501.673 424.544 502.707 424.191 502.973 424.069C507.523 421.985 514.74 423.341 519.876 422.918L519.491 424.144C514.966 426.045 506.347 424.645 501.337 424.661Z"/>
	<path fill="#449A6D" d="M468.193 389.089C469.959 387.407 476.313 387.959 478.769 388.02C480.859 388.073 485.292 387.775 486.912 388.818L486.419 389.376C481.733 390.176 472.894 390.176 468.193 389.089Z"/>
	<path fill="#5EA77E" d="M301.923 491.614C313 490.462 324.99 491.367 336.18 491.371L405.129 491.397L461.592 491.379C467.995 491.373 482 490.4 487.648 491.849C490.081 492.473 492.355 494.304 493.579 496.476C495.1 499.174 495.225 502.609 494.297 505.518C493.137 509.151 490.953 510.934 487.651 512.599C480.472 513.982 471.408 513.002 464.071 513.001L413.252 512.982L339.264 512.991C328.177 512.991 313.11 514.003 302.55 512.578C300.306 512.275 297.849 510.598 296.563 508.75C294.829 506.259 294.549 503.08 295.236 500.179C296.222 496.021 298.348 493.751 301.923 491.614Z"/>
	<path fill="#5EA77E" d="M368.657 392.001C373.147 392.022 377.623 392.045 382.109 392.283C381.762 398.347 381.083 404.647 379.831 410.595L394.27 410.535C395.153 404.357 396.005 398.176 396.825 391.99C401.45 392.021 406.105 391.945 410.722 392.226C410.411 398.425 409.195 404.618 408.234 410.745L417.916 410.807L416.307 424.016L406.234 424.039C405.729 428.696 405.029 433.294 404.277 437.915L413.539 438.038C413.489 442.369 413.235 446.763 412.443 451.028L402.479 451.02C401.834 455.817 401.139 460.607 400.393 465.39C396.745 465.339 392.73 464.95 389.125 465.375L387.821 464.949C386.339 462.165 388.232 454.199 388.961 451.111L374.116 451.061C373.454 455.726 372.898 460.483 371.893 465.085C367.364 465.084 362.776 464.933 358.268 465.392C359.052 460.612 359.744 455.818 360.343 451.011L351.79 451.09C352.087 446.694 352.566 442.226 352.477 437.821L362.448 437.951C363.058 433.342 363.464 428.665 364.255 424.087L355.328 424.026C355.745 419.671 356.33 415.313 356.663 410.955C359.832 410.881 363.036 410.708 366.204 410.784C367.063 404.577 367.486 398.14 368.657 392.001ZM375.793 437.879C380.509 437.796 385.191 437.723 389.905 437.976C390.859 433.339 391.584 428.717 392.231 424.032L377.861 424.063C377.153 428.641 376.243 433.273 375.793 437.879Z"/>
	<path fill="#449A6D" d="M388.961 451.111C390.275 453.554 389.001 462.195 389.125 465.375L387.821 464.949C386.339 462.165 388.232 454.199 388.961 451.111Z"/>
	<path fill="#5EA77E" d="M302.404 532.583C309.406 532.041 316.589 532.345 323.615 532.351L359.335 532.387L402.115 532.359C411.045 532.343 420.051 532.081 428.965 532.554C431.29 534.012 433.228 535.792 434.478 538.28C435.966 541.243 436.427 544.789 435.232 547.938C434.008 551.167 431.48 553.187 428.375 554.48C422.341 555.269 415.937 554.897 409.852 554.901L380.165 554.9L337.465 554.878C327.969 554.938 318.344 555.332 308.863 554.996C306.965 554.929 305.083 554.766 303.254 554.223C300.296 553.344 297.613 551.606 296.176 548.799C294.76 546.031 294.79 542.565 295.722 539.647C296.846 536.126 299.273 534.277 302.404 532.583Z"/>
	<path fill="#5EA77E" d="M306.704 334.236L372.505 334.274C383.577 334.265 395.292 333.381 406.254 334.486C408.078 334.67 409.714 335.198 411.21 336.281C413.635 338.047 415.222 340.736 415.598 343.712C415.988 346.693 415.539 349.876 413.587 352.261C411.33 355.018 408.351 355.709 404.963 355.951L335.735 355.973C326.67 355.986 310.75 356.975 302.421 355.557C299.764 355.105 297.529 353.479 296.079 351.229C294.365 348.57 294.048 345.307 294.745 342.263C295.598 338.538 297.955 336.58 301.061 334.617L306.704 334.236Z"/>
	<path fill="#5EA77E" d="M327.528 384.075C327.66 384.066 327.791 384.053 327.923 384.048C331.234 383.92 334.361 384.419 336.802 386.851C338.664 388.706 339.849 391.27 339.788 393.92C339.731 396.352 338.713 398.564 337.306 400.507C332.738 406.817 318.015 418.781 311.751 424.473C316.73 429.482 321.767 434.432 326.863 439.322C330.457 442.769 334.804 446.267 337.7 450.311C338.519 451.456 339.048 452.574 339.132 454.003C339.298 456.832 337.902 459.388 335.956 461.331C332.964 464.318 330.537 465.055 326.375 465.044C321.29 463.136 289.717 431.623 286.916 426.095C286.248 424.776 285.898 423.71 286.39 422.267C287.063 420.294 288.478 418.468 289.847 416.925C295.515 410.545 320.602 387.682 327.528 384.075Z"/>
	<path fill="#EEEDEC" d="M610.624 487.034C615.131 482.398 635.437 459.846 640.419 459.219C643.623 458.816 646.445 461.544 648.487 463.611C650.796 465.95 655.927 470.129 655.554 473.803C655.038 478.889 631.966 499.92 626.94 504.537C631.601 508.997 653.778 529.642 655.394 533.987C655.287 538.235 651.626 541.859 648.701 544.648C646.647 546.608 643.502 549.416 640.523 549.481C637.178 549.553 634.981 545.487 632.445 543.922C632.369 543.917 632.293 543.92 632.218 543.908C629.717 543.481 621.01 535.204 619.462 532.771C618.789 531.714 618.871 531.705 619.124 530.498C616.366 527.472 613.475 524.578 610.594 521.669C605.354 527.046 585.079 549.43 579.378 549.484C575.693 549.519 571.663 544.26 569.371 541.769C567.508 539.744 565.726 537.872 565.772 534.946C565.796 533.406 566.139 532.046 567.026 530.779C571.395 524.539 586.98 510.653 593.218 504.499C588.313 499.67 568.39 480.947 565.978 476.334C565.627 475.664 565.519 474.832 565.538 474.084C565.648 469.726 571.295 464.514 574.418 461.73C576.079 460.248 578.3 459.199 580.573 459.453C585.208 459.97 605.987 482.599 610.624 487.034Z"/>
	<path fill="#1F2B2E" d="M619.124 530.498C623.633 534.904 628.074 539.38 632.445 543.922C632.369 543.917 632.293 543.92 632.218 543.908C629.717 543.481 621.01 535.204 619.462 532.771C618.789 531.714 618.871 531.705 619.124 530.498Z"/>
	<path fill="#5EA77E" d="M768.455 672.91C773.418 671.543 810.635 672.176 817.138 673.17C821.756 673.876 826.33 675.213 830.421 677.502C837.703 681.482 843.026 688.282 845.143 696.305C847.524 705.2 847.07 715.985 842.395 724.09C838.941 730.078 833.843 733.602 827.588 736.189C828.647 737.948 830.252 740.016 830.781 741.99C836.723 750.683 845.928 767.339 850.451 776.94C841.626 776.791 832.685 776.37 823.87 776.793C819.115 767.476 813.397 758.186 809.396 748.549C807.588 745.411 805.868 742.223 804.238 738.988C800.303 739.013 796.355 739.109 792.421 739.057C792.452 751.05 792.138 763.153 792.533 775.134C792.465 775.944 792.559 775.473 792.094 776.506C787.997 777.704 773.297 776.687 768.101 776.626C768.924 751.462 768.168 726.006 768.114 700.812C768.1 694.311 767.163 678.42 768.455 672.91ZM792.511 720.032C800.347 720.092 812.936 721.898 818.932 715.73C821.135 713.464 821.885 711.045 822.351 707.992C822.151 704.293 821.329 700.601 818.83 697.726C812.736 690.715 801.171 693.547 792.96 692.7C792.798 692.684 792.637 692.664 792.475 692.645L792.511 720.032Z"/>
	<path fill="#449A6D" d="M768.101 776.626C768.924 751.462 768.168 726.006 768.114 700.812C768.1 694.311 767.163 678.42 768.455 672.91L768.532 673.313L769.347 673.437C770.445 683.804 769.823 694.856 769.846 705.3C769.897 728.545 769.484 751.827 769.771 775.065C772.245 775.109 791.54 775.92 792.533 775.134C792.465 775.944 792.559 775.473 792.094 776.506C787.997 777.704 773.297 776.687 768.101 776.626Z"/>
	<path fill="#449A6D" d="M830.781 741.99C836.723 750.683 845.928 767.339 850.451 776.94C841.626 776.791 832.685 776.37 823.87 776.793C819.115 767.476 813.397 758.186 809.396 748.549C809.594 748.604 809.8 748.635 809.989 748.713C813.354 750.105 822.452 770.542 824.674 775.097C832.289 774.916 839.938 775.275 847.557 775.335C844.32 767.833 830.567 748.501 830.781 741.99Z"/>
	<path fill="#449A6D" d="M792.475 692.645C800.525 691.665 811.293 689.697 818.281 695.002C821.052 697.105 822.571 699.962 823.019 703.395C823.217 704.915 822.7 706.515 822.351 707.992C822.151 704.293 821.329 700.601 818.83 697.726C812.736 690.715 801.171 693.547 792.96 692.7C792.798 692.684 792.637 692.664 792.475 692.645Z"/>
	<path fill="#5EA77E" d="M623.181 672.388C631.309 672.578 639.455 672.471 647.585 672.462L647.69 738.032C647.695 750.23 648.378 762.899 647.496 775.044C647.438 775.951 647.59 775.906 646.926 776.621C638.898 777.209 630.699 776.625 622.633 776.792C622.627 762.237 622.212 747.541 622.859 733.005C619.808 733.08 616.756 733.085 613.705 733.021C605.537 733.452 597.248 733.145 589.066 733.084L589.256 773.985C589.138 775.258 589.289 775.728 588.497 776.774C580.521 776.687 572.544 776.733 564.569 776.912C565.601 742.744 563.25 708.352 564.743 674.209L564.792 673.066C567.752 671.518 584.577 672.488 589.066 672.555C589.132 685.184 590.115 698.633 588.949 711.178C589.025 711.26 589.09 711.355 589.178 711.424C590.212 712.226 618.501 711.804 622.703 711.944C622.989 701.997 621.2 680.867 623.181 672.388Z"/>
	<path fill="#449A6D" d="M564.743 674.209C565.747 678.85 564.716 683.641 565.056 688.323C565.255 691.056 565.814 693.746 565.942 696.492C567.163 722.69 565.098 749.072 565.972 775.295C570.658 775.135 586.26 776.278 589.256 773.985C589.138 775.258 589.289 775.728 588.497 776.774C580.521 776.687 572.544 776.733 564.569 776.912C565.601 742.744 563.25 708.352 564.743 674.209Z"/>
	<path fill="#449A6D" d="M623.181 672.388L624.754 673.337C624.674 673.607 624.588 673.876 624.515 674.148C622.698 680.946 625.073 703.241 623.824 713.122C619.163 713.722 593.429 714.278 588.845 713.212C588.78 712.417 588.711 711.951 588.949 711.178C589.025 711.26 589.09 711.355 589.178 711.424C590.212 712.226 618.501 711.804 622.703 711.944C622.989 701.997 621.2 680.867 623.181 672.388Z"/>
	<path fill="#449A6D" d="M613.705 733.021C617.071 732.196 620.466 732.458 623.888 732.154C624.378 746.425 624.58 760.705 624.493 774.984C631.47 775.1 640.721 776.159 647.496 775.044C647.438 775.951 647.59 775.906 646.926 776.621C638.898 777.209 630.699 776.625 622.633 776.792C622.627 762.237 622.212 747.541 622.859 733.005C619.808 733.08 616.756 733.085 613.705 733.021Z"/>
	<path fill="#5EA77E" d="M864.521 672.508C872.564 672.365 880.626 672.437 888.672 672.413C903.286 672.37 919.771 670.896 931.397 681.57C938.152 687.773 941.165 696.388 941.528 705.393C941.909 714.845 939.513 724.665 932.872 731.679C925.585 739.376 915.866 741.911 905.595 742.124C900.207 742.604 894.399 742.634 889.01 742.163L889.011 776.829C880.877 776.718 872.743 776.665 864.609 776.67L864.521 672.508ZM889.043 721.562C896.728 721.583 908.32 722.978 914.238 717.092C917.66 713.689 918.02 709.426 917.962 704.882C917.922 704.822 917.867 704.77 917.843 704.702C916.765 701.582 916.068 698.845 913.56 696.49C907.979 691.248 897.76 692.732 890.7 692.884L889.475 692.997C887.997 696.388 889.003 716.545 889.043 721.562Z"/>
	<path fill="#449A6D" d="M890.7 692.884C896.487 690.528 904.962 690.399 910.735 692.815C913.558 693.997 916.087 696.224 917.218 699.121C917.422 699.645 917.555 700.186 917.701 700.727C918.028 701.938 918.337 703.064 918.428 704.323L917.962 704.882C917.922 704.822 917.867 704.77 917.843 704.702C916.765 701.582 916.068 698.845 913.56 696.49C907.979 691.248 897.76 692.732 890.7 692.884Z"/>
	<path fill="#5EA77E" d="M693.492 672.517C702.819 672.389 712.148 672.383 721.475 672.5C733.709 706.888 744.178 742.086 755.526 776.787C747.302 776.79 739.105 776.525 730.883 776.881C728.62 769.923 727.1 761.634 723.89 755.129L722.625 754.915C711.839 755.068 701.022 754.895 690.233 754.872C687.783 762.153 685.446 769.471 683.223 776.824C675.157 776.731 667.117 776.654 659.055 776.975C664.275 758.452 670.883 740.128 676.9 721.84C682.299 705.433 687.188 688.588 693.492 672.517ZM695.258 735.063C702.974 735.075 710.734 734.925 718.442 735.256C718.543 731.657 710.465 708.93 708.86 703.866L706.54 697.929C702.956 710.362 698.82 722.635 695.258 735.063Z"/>
	<path fill="#449A6D" d="M708.86 703.866L710.466 704.335C712.252 707.895 720.498 733.551 719.799 736.2C718.749 735.958 719.231 736.225 718.442 735.256C718.543 731.657 710.465 708.93 708.86 703.866Z"/>
	<path fill="#5EA77E" d="M479.006 707.311C476.973 701.622 478.981 692.377 481.535 687.093C484.95 680.028 491.558 674.907 498.935 672.498C512.263 668.145 528.785 671.071 540.997 677.459C542.309 678.161 543.6 678.9 544.869 679.675C543.724 686.804 541.247 693.624 539.687 700.656C532.11 696.01 519.163 690.328 510.052 692.525C507.196 693.213 504.195 694.439 502.715 697.142C501.681 699.03 501.241 701.253 502.023 703.308C503.536 707.284 508.511 709.626 512.225 711.121C525.128 716.316 540.96 718.75 547.155 733.121C550.641 741.207 550.083 751.207 546.722 759.243C543.563 766.794 537.642 771.853 530.193 774.862C512.471 782.021 494.502 776.635 477.67 769.932C479.243 762.116 480.965 754.484 483.553 746.922C493.41 751.888 507.016 759.078 518.392 755.25C522.052 754.019 524.075 752.121 525.738 748.7C525.766 747.788 525.799 746.86 525.716 745.951C524.873 736.728 506.258 732.928 499.243 730.129C495.527 728.645 491.868 726.794 488.687 724.348C482.92 719.915 479.921 714.47 479.006 707.311Z"/>
	<path fill="#449A6D" d="M479.006 707.311C479.131 707.506 479.258 707.7 479.38 707.896C480.09 709.04 480.56 710.33 481.069 711.572L481.103 711.177C481.156 711.346 481.208 711.516 481.264 711.684C483.492 718.388 489.17 723.534 495.381 726.599C501.943 729.837 514.467 732.592 519.629 736.12C522.7 738.218 526.637 740.372 527.419 744.349C527.653 745.54 527.453 746.679 527.23 747.854L526.59 748.683L525.738 748.7C525.766 747.788 525.799 746.86 525.716 745.951C524.873 736.728 506.258 732.928 499.243 730.129C495.527 728.645 491.868 726.794 488.687 724.348C482.92 719.915 479.921 714.47 479.006 707.311Z"/>
	<path fill="#314346" d="M96.3419 672.518C104.964 672.395 113.597 672.442 122.22 672.421C138.123 672.382 153.302 671.398 166.121 682.536C176.079 691.187 180.581 703.952 181.456 716.836C182.613 733.875 179.914 750.716 168.378 763.892C155.573 776.699 138.813 776.758 121.902 776.745C113.39 776.672 104.878 776.707 96.367 776.849L96.3419 672.518ZM119.912 755.166C130.213 755.097 141.876 756.415 149.889 748.638C156.899 739.769 157.822 727.828 156.573 716.946C155.741 709.69 153.439 701.817 147.444 697.134C140.046 691.355 128.597 692.97 119.812 693.006C119.379 713.675 119.684 734.488 119.912 755.166Z"/>
	<path fill="#314346" d="M381.479 672.517C395.369 672.235 425.713 670.972 437.679 674.966C446.787 678.008 454.921 684.267 459.222 692.976C467.716 706.814 467.99 727.296 464.337 742.662C463.465 746.332 462.229 750.306 460.31 753.569C458.109 759.284 451.762 767.081 446.023 769.596C445.875 769.661 445.72 769.707 445.568 769.762C441.533 772.605 436.375 774.503 431.531 775.376C418.394 778.367 395.858 776.404 381.39 776.934L381.479 672.517ZM405.092 755.088C414.627 755.092 427.19 756.134 434.509 748.773C441.118 742.125 441.747 730.698 441.494 721.863C441.399 718.543 441.092 715.318 440.587 712.038C438.238 704.605 435.629 699.784 429.105 695.224C421.32 692.274 413.49 692.894 405.31 693.032C405.419 713.701 405.734 734.429 405.092 755.088Z"/>
	<path fill="#1F2B2E" d="M460.31 753.569C460.106 753.132 459.809 752.23 459.838 751.76C459.997 749.131 461.936 745.011 462.607 742.302C463.972 736.79 464.511 731.089 464.764 725.427C465.119 717.508 463.997 708.571 461.329 701.082C460.479 698.695 459.084 696.58 458.407 694.138L459.222 692.976C467.716 706.814 467.99 727.296 464.337 742.662C463.465 746.332 462.229 750.306 460.31 753.569Z"/>
	<path fill="#1F2B2E" d="M431.531 775.376L430.728 774.818L431.38 774.038C435.419 772.645 441.373 769.579 445.568 769.762C441.533 772.605 436.375 774.503 431.531 775.376Z"/>
	<path fill="#1F2B2E" d="M429.105 695.224C430.356 694.81 430.535 694.64 431.777 695.261C435.785 697.261 439.373 703.026 440.625 707.238C441.158 709.028 441.541 710.355 440.587 712.038C438.238 704.605 435.629 699.784 429.105 695.224Z"/>
	<path fill="#314346" d="M307.23 672.475L336.179 672.495C341.526 687.525 346.436 702.784 351.392 717.949C353.096 723.091 354.864 728.219 356.334 733.433C358.571 738.263 359.955 743.913 361.634 748.994C364.661 758.156 368.097 767.381 370.411 776.74C361.921 776.794 353.431 776.771 344.941 776.672C343.16 769.36 340.451 762.237 338.574 754.93L304.785 754.888C302.175 761.952 300.248 769.439 298.031 776.648L273.293 776.819C285.04 742.186 295.49 707.114 307.23 672.475ZM321.375 735.038L333.166 734.992C330.641 726.752 324.805 704.389 321.453 698.227C317.884 710.543 313.745 722.72 310.41 735.097L321.375 735.038Z"/>
	<path fill="#1F2B2E" d="M351.392 717.949C353.096 723.091 354.864 728.219 356.334 733.433L355.745 733.633C354.938 732.807 354.429 732.14 353.927 731.089C352.263 727.608 350.02 721.609 351.392 717.949Z"/>
	<path fill="#314346" d="M198.016 672.5C219.754 672.262 241.521 672.488 263.262 672.494C263.396 679.56 263.427 686.58 263.178 693.644C249.293 693.423 235.386 693.59 221.496 693.489L221.408 712.492L257.504 712.459L257.547 734.552L221.496 734.439L221.482 740.375C221.494 744.991 221.445 749.607 221.333 754.222C235.228 753.702 249.257 754.084 263.165 754.124C263.659 761.677 263.421 769.321 263.39 776.889C254.2 776.31 244.695 776.742 235.463 776.729C222.99 776.713 210.374 776.354 197.92 777.006L198.016 672.5Z"/>
	<path fill="#314346" d="M663.053 275.328L663.18 275.393C664.726 278.19 663.69 296.744 663.626 300.805C656.182 300.061 647.896 300.889 640.375 300.938L639.517 300.852C638.05 297.918 639.066 279.948 639.096 275.432C647.06 275.174 655.082 275.348 663.053 275.328Z"/>
	<path fill="#314346" d="M729.087 351.443L751.278 351.504C751.35 358.64 751.027 365.82 751.414 372.946C743.974 372.857 736.515 372.668 729.077 372.89C729.538 365.822 729.143 358.529 729.087 351.443Z"/>
	<path fill="#314346" d="M704.921 289.255L718.045 289.174C718.026 296.109 718.075 303.044 718.19 309.979C715.166 309.856 712.13 309.832 709.103 309.761L696.172 309.866C696.852 303.198 696.404 296.056 696.439 289.331L704.921 289.255Z"/>
	<path fill="#314346" d="M672.815 322.163C679.962 321.813 687.337 321.842 694.473 322.368C694.416 328.899 694.302 335.429 694.132 341.957L672.475 341.883C672.484 336.027 671.595 327.696 672.815 322.163Z"/>
	<path fill="#314346" d="M689.932 379.473C695.832 379.5 701.732 379.488 707.631 379.438C707.769 385.815 708.152 392.553 707.371 398.887L689.511 399.068C689.501 392.534 689.642 386.001 689.932 379.473Z"/>
</svg>
